<?xml version="1.0" encoding="utf-8"?>
<!-- Generator: Adobe Illustrator 19.2.1, SVG Export Plug-In . SVG Version: 6.00 Build 0)  -->
<svg version="1.1" id="Layer_1" xmlns="http://www.w3.org/2000/svg" xmlns:xlink="http://www.w3.org/1999/xlink" x="0px" y="0px"
	 viewBox="0 0 64 64" style="enable-background:new 0 0 64 64;" xml:space="preserve">
<style type="text/css">
	.st0{fill:#FFFFFF;stroke:#CCCCCC;stroke-width:0.4;stroke-miterlimit:10;}
	.st1{fill:#FF8300;}
	.st2{fill:#5B2B82;}
	.st3{fill:#BFBE00;}
</style>
<g>
	<path class="st0" d="M54.2,9.8C48.3,3.9,40.4,0.6,32,0.6c-8.4,0-16.3,3.3-22.2,9.2C3.9,15.7,0.6,23.6,0.6,32
		c0,8.4,3.3,16.3,9.2,22.2c5.9,5.9,13.8,9.2,22.2,9.2c8.4,0,16.3-3.3,22.2-9.2c5.9-5.9,9.2-13.8,9.2-22.2
		C63.4,23.6,60.1,15.7,54.2,9.8z"/>
	<path class="st1" d="M57.8,42.4l-7.6-11.5l5.9-8.6c0.7-1,0.4-2-0.5-2.4c-0.9-0.4-2.1,0-2.9,0.9l-5.2,6l-3.6-5.4
		c-0.7-1-2.2-1.6-3.3-1.2c-1.1,0.4-1.7,1.6-1.2,2.7l4.2,8.5l-6,6.8c-0.8,0.9-0.9,2.5-0.3,3.6l1.5,2.4c0.7,1,1.8,1.1,2.4,0l5.1-7.5
		l4.1,7.5c0.5,1.1,1.8,1.8,3,1.5l3.6-1C58.1,44.5,58.5,43.4,57.8,42.4"/>
	<path class="st2" d="M13.4,20.4c-5.5,0-10,5.4-10,12c0,6.6,4.5,12,10,12c5.5,0,10-5.4,10-12C23.4,25.8,18.9,20.4,13.4,20.4
		 M13.4,40.6c-2.6,0-4.7-3.7-4.7-8.2c0-4.5,2.1-8.1,4.7-8.1c2.6,0,4.7,3.6,4.7,8.1C18.1,36.9,16,40.6,13.4,40.6"/>
	<path class="st3" d="M26.5,17.2c-1.4,0-1.9,1.2-1.8,2.3l0,15.3c0,1.4,0.8,2.3,2.4,2.3l8.5,0c1.3,0,2.1-0.3,2.2-1.4v-2.7
		c0-1.2-1.3-1.2-2.1-1.2h-3.5c-1.4,0-1.7-0.2-1.8-1.6l0-10.9c0-1.3-0.4-2.3-1.8-2.3L26.5,17.2z"/>
</g>
</svg>
